<?xml version="1.0" encoding="utf-8"?>
<!-- Generator: Adobe Illustrator 26.0.2, SVG Export Plug-In . SVG Version: 6.00 Build 0)  -->
<svg version="1.1" id="Layer_1" xmlns="http://www.w3.org/2000/svg" xmlns:xlink="http://www.w3.org/1999/xlink" x="0px" y="0px"
	 viewBox="0 0 558.45 139.09" style="enable-background:new 0 0 558.45 139.09;" xml:space="preserve">
<style type="text/css">
	.st0{fill-rule:evenodd;clip-rule:evenodd;fill:#FFFFFF;}
</style>
<g>
	<path class="st0" d="M160.73,108.86h-11.93V53.47h17.18L180,95.94l14.09-42.47h17.03v55.39h-11.46l0.92-43.05l-14.11,43.05h-12.41
		l-14.55-43.43L160.73,108.86L160.73,108.86z M265.25,53.47v9.62h-19.13c-4.18,0-7.41,1.1-9.68,3.3c-2.27,2.21-3.4,5.44-3.4,9.71
		h32.21v9.62h-32.21c0,4.9,1.06,8.4,3.19,10.5c2.05,2.03,5.35,3.04,9.89,3.04h19.13v9.62h-19.57c-8.67,0-15.18-2.35-19.57-7.03
		c-4.21-4.51-6.31-11.05-6.31-19.62c0-9.14,1.85-16.04,5.53-20.71c4.23-5.36,11.12-8.04,20.66-8.04H265.25L265.25,53.47z
		 M312.11,98.78V85.86h-15.54v-9.77h27.39v32.77h-24.98c-8.27,0-14.54-1.91-18.82-5.72c-4.91-4.37-7.36-11.36-7.36-20.93
		c0-10.27,2.33-17.73,6.99-22.4c4.23-4.23,10.63-6.35,19.2-6.35h24.98v9.62h-25c-4.18,0-7.3,1.23-9.36,3.69
		c-2.47,2.95-3.72,7.9-3.72,14.81c0,5.72,0.9,9.92,2.71,12.6c2.06,3.06,5.53,4.59,10.4,4.59H312.11L312.11,98.78z M339.32,108.86
		H327l23.26-55.39h12.32l23.62,55.39h-12.91l-5.08-13.23h-24.12L339.32,108.86L339.32,108.86z M347.85,85.86h16.57l-8.37-21.23
		L347.85,85.86z"/>
	<path class="st0" d="M416.81,63.39h-13.52V79.7h14.12c7.05,0,10.58-2.71,10.58-8.1c0-2.81-0.78-4.85-2.33-6.09
		C423.92,64.1,420.98,63.39,416.81,63.39L416.81,63.39z M403.29,108.86h-11.62V53.47h25.26c8.85,0,15.11,1.49,18.79,4.47
		c3.46,2.81,5.19,7.36,5.19,13.66c0,6.71-1.97,11.41-5.94,14.16c-3.6,2.47-9.48,3.72-17.59,3.72h-14.09V108.86L403.29,108.86z
		 M460.43,108.86h-11.62V53.47h28.57c6.62,0,11.48,1.28,14.59,3.83c3.23,2.68,4.85,6.99,4.85,12.9c0,3.99-0.9,7.31-2.71,9.98
		c-1.9,2.83-4.69,4.67-8.37,5.53l13.59,23.16h-13.03l-12.25-21.62h-13.63V108.86L460.43,108.86z M474.74,63.39h-14.31v14.08h14.31
		c3.94,0,6.65-0.5,8.14-1.5c1.5-1.01,2.24-2.89,2.24-5.62c0-2.28-0.41-3.85-1.24-4.71C482.43,64.15,479.38,63.39,474.74,63.39
		L474.74,63.39z M515.67,81.08c0,5.92,1.05,10.5,3.15,13.73c2.5,3.83,6.45,5.74,11.84,5.74c5.23,0,9.1-1.77,11.64-5.3
		c2.3-3.22,3.45-7.87,3.45-13.96c0-3.37-0.3-6.22-0.9-8.55c-0.83-3.23-2.26-5.73-4.28-7.5c-2.46-2.15-5.76-3.23-9.91-3.23
		c-4.99,0-8.76,1.69-11.31,5.07C516.9,70.33,515.67,75,515.67,81.08L515.67,81.08z M530.56,52.39c5.51,0,10.12,0.74,13.8,2.22
		c4.44,1.77,7.82,4.67,10.14,8.68c2.63,4.5,3.95,10.48,3.95,17.91c0,9.17-2,16.11-6.01,20.81c-4.54,5.33-11.77,8-21.72,8
		c-9.45,0-16.43-2.4-20.95-7.19c-4.53-4.8-6.78-12.05-6.78-21.77c0-7.13,1.23-12.91,3.68-17.31c2.23-4.01,5.51-6.95,9.85-8.83
		C520.36,53.23,525.04,52.39,530.56,52.39z"/>
	<path class="st0" d="M68,0.14l-2.07,0.13c-2.71,0.13-7.2,0.71-9.89,1.35c-1.21,0.29-2.52,0.5-3.72,0.85
		c-1.18,0.34-2.35,0.58-3.52,0.96C42.73,5.37,38.5,6.99,32.92,10c-1.97,1.06-3.68,2.24-5.53,3.5c-0.87,0.59-1.7,1.26-2.55,1.93
		c-2.38,1.9-4.87,4.28-6.87,6.71C5.87,36.78,1.22,55.83,8.21,77.95c1.39,4.4,3.33,8.44,5.72,12.26c1.19,1.91,2.39,3.49,3.82,5.13
		c1.05,1.21,2.1,2.36,3.26,3.49c1.95,1.9,3.91,3.53,6.11,5.11c2.17,1.56,4.47,3,6.92,4.3c0.48,0.26,0.98,0.48,1.49,0.79
		c2.59,1.54,6.88,2.74,9.33,4.24c1.99,1.22,2.98,3.41,2.43,6.33c-0.27,1.42-2.04,1.01-3.43,1.01c-7.43,0-15.02,0.13-22.38-0.19
		c-2.66-0.12-5.44-0.48-7.82-1.14c-2.77-0.77-4.12-1.15-6.22-2.81c-1.6-1.26-2.88-3.28-3.41-5.63C3.78,109.73,4,108,2.49,107.94
		c-2.2-0.1-2.54-0.26-2.48,2.04c0.15,5.84,0.27,11.7,0.44,17.51c0.09,2.91,0.18,5.89,0.18,8.79c-0.01,3.55,1.07,2.74,6.26,2.74
		h44.99c1,0,3.46,0.07,4.21-0.25c1.14-0.49,0.97-2.44,0.82-3.62c-0.25-2.03-0.42-6.03-0.61-8.39c-0.19-2.32-1.1-15.65-1.32-16.66
		c-0.1-0.47-0.55-1.07-0.87-1.32c-0.31-0.24-1.11-0.56-1.51-0.76c-5.9-2.93-10.66-7.52-14.21-12.88
		c-4.46-6.74-6.95-15.23-8.21-23.26c-0.85-5.47-0.81-11.36-0.31-16.93c0.42-4.7,1.43-10.74,2.88-15.21
		c0.73-2.24,1.39-4.47,2.36-6.59c1.84-3.98,2.4-5.1,4.73-8.77c1.69-2.66,3.97-5.22,6.22-7.36c4.68-4.45,11.45-7.82,18.28-8.72
		c5.32-0.7,11.17-0.38,16.4,0.82c2.05,0.47,4.8,1.44,6.63,2.4c2.97,1.56,5.54,3.23,7.93,5.5c1.17,1.11,2.21,2.23,3.25,3.5
		c3.13,3.8,5.35,8.29,7.42,12.83c0.47,1.03,0.96,2.15,1.32,3.23c0.37,1.09,0.81,2.12,1.17,3.31c1.95,6.49,2.97,12.11,3.26,19.3
		c0.36,9.1-1.98,22.22-5.74,30.23c-2.65,5.65-5.82,10.1-10.61,14.13c-0.41,0.34-0.84,0.63-1.29,0.99c-1.48,1.19-3.82,2.63-5.56,3.47
		c-1.1,0.53-2.07,0.77-2.38,2.1c-0.24,1.04-0.28,2.98-0.36,4.12c-0.09,1.34-0.2,2.76-0.32,4.13c-0.13,1.35-0.1,3-0.29,4.31
		c-0.19,1.3-0.2,2.82-0.29,4.2c-0.24,3.47-0.59,6.97-0.76,10.44c-0.04,0.84-0.14,1.43,0.67,1.63c0.87,0.21,16.64,0.09,17.96,0.09
		c5.99,0,11.99,0,17.98,0l13.43,0.05c7.41,0,6.27,0.94,6.47-6.95c0.15-5.89,0.17-11.79,0.43-17.66c0.06-1.37,0.03-2.97,0.13-4.35
		c0.16-2.4-0.16-2.18-2.32-2.19c-2.51-0.01-0.71,2.67-2.92,6.04c-1.37,2.08-2.71,3.02-4.99,4.04c-4.92,2.19-6.18,1.98-11.15,2.28
		c-1.4,0.08-2.99,0.1-4.41,0.12c-5.95,0.08-11.85,0.21-17.82,0.21c-1.27,0-3.1,0.17-3.46-1.04c-0.21-0.72-0.13-3.58,0.03-4.38
		c0.24-1.24,1.21-1.8,2.3-2.17c5.35-1.8,10.47-4.35,15.15-7.39c4.32-2.81,8.67-6.63,11.9-10.63c0.65-0.8,1.27-1.62,1.96-2.51
		c2.62-3.43,4.94-7.57,6.52-11.52c3.06-7.65,4.02-14.59,4.02-22.96c0.01-9.7-2.55-20.52-7.4-28.52c-3.02-4.98-6.04-8.46-10.27-12.26
		c-2.4-2.16-5.1-4-7.82-5.69c-5.39-3.34-12.33-6.54-18.65-8.36c-1.07-0.31-2.33-0.64-3.5-0.98c-2.96-0.85-8.64-1.73-11.67-1.89
		C74.15,0.15,70.5-0.19,68,0.14z"/>
	<path class="st0" d="M58.21,105.24c-3.38-1.12-6.6-2.7-9.58-4.68V81.53l5.76-5.21l3.82,1.77V105.24z"/>
	<path class="st0" d="M75.55,106.77c-1.78,0.26-3.59,0.39-5.42,0.39c-1.4,0-2.79-0.08-4.16-0.23V78.74l5.04,2.72l4.54-4.12V106.77z"
		/>
	<path class="st0" d="M92.89,61.61v38.07c-2.97,2.13-6.18,3.86-9.58,5.12V70.3L92.89,61.61z"/>
	<polygon class="st0" points="53.47,56.89 10.62,103.47 52.72,65.38 70.52,73.6 129.95,16.7 133.73,20.84 139.36,0.03 117.01,2.53 
		120.77,6.65 69.93,67.49 	"/>
</g>
</svg>
